<mxfile host="65bd71144e">
    <diagram id="qHCl7rLmMHLMrPoeXhqH" name="Page-1">
        <mxGraphModel dx="517" dy="466" grid="1" gridSize="10" guides="1" tooltips="1" connect="1" arrows="1" fold="1" page="1" pageScale="1" pageWidth="850" pageHeight="1100" math="0" shadow="0">
            <root>
                <mxCell id="0"/>
                <mxCell id="1" parent="0"/>
                <mxCell id="3" value="" style="rounded=1;whiteSpace=wrap;html=1;arcSize=2;fillColor=#00002B;strokeColor=#FFFFFF;fontColor=#FFFFFF;" parent="1" vertex="1">
                    <mxGeometry x="40" y="164" width="680" height="460" as="geometry"/>
                </mxCell>
                <mxCell id="4" value="" style="rounded=1;whiteSpace=wrap;html=1;fillColor=none;strokeColor=#FFFFFF;fontColor=#FFFFFF;arcSize=8;" parent="1" vertex="1">
                    <mxGeometry x="60" y="241.57" width="490" height="268.43" as="geometry"/>
                </mxCell>
                <mxCell id="12" value="" style="endArrow=none;html=1;entryX=1.003;entryY=0.136;entryDx=0;entryDy=0;entryPerimeter=0;exitX=0;exitY=0.137;exitDx=0;exitDy=0;exitPerimeter=0;strokeWidth=2;strokeColor=#FFFFFF;" parent="1" source="3" target="3" edge="1">
                    <mxGeometry width="50" height="50" relative="1" as="geometry">
                        <mxPoint x="40" y="230" as="sourcePoint"/>
                        <mxPoint x="730" y="230" as="targetPoint"/>
                    </mxGeometry>
                </mxCell>
                <mxCell id="14" value="" style="endArrow=none;html=1;strokeWidth=2;strokeColor=#FFFFFF;" parent="1" edge="1">
                    <mxGeometry width="50" height="50" relative="1" as="geometry">
                        <mxPoint x="120" y="220" as="sourcePoint"/>
                        <mxPoint x="720" y="228" as="targetPoint"/>
                        <Array as="points">
                            <mxPoint x="560" y="220"/>
                            <mxPoint x="560" y="170"/>
                            <mxPoint x="640" y="170"/>
                            <mxPoint x="720" y="170"/>
                        </Array>
                    </mxGeometry>
                </mxCell>
                <mxCell id="15" value="" style="swimlane;startSize=0;rounded=1;strokeColor=#3399FF;strokeWidth=1;fontFamily=Times New Roman;fontSize=14;fontColor=#FF0080;fillColor=none;gradientColor=#000000;movable=1;resizable=1;rotatable=1;deletable=1;editable=1;connectable=1;arcSize=12;swimlaneBody=1;horizontal=1;swimlaneHead=1;" parent="1" vertex="1">
                    <mxGeometry x="630" y="190" width="20" height="20" as="geometry"/>
                </mxCell>
                <mxCell id="16" value="" style="whiteSpace=wrap;html=1;aspect=fixed;rounded=1;strokeColor=#3399FF;strokeWidth=1;fontFamily=Times New Roman;fontSize=14;fontColor=#FF0080;fillColor=none;gradientColor=#000000;movable=1;resizable=1;rotatable=1;deletable=1;editable=1;connectable=1;" parent="1" vertex="1">
                    <mxGeometry x="640" y="180" width="20" height="20" as="geometry"/>
                </mxCell>
                <mxCell id="17" value="" style="shape=umlDestroy;rounded=1;strokeColor=#3399FF;fontFamily=Times New Roman;fontSize=14;fontColor=#FFFFFF;fillColor=none;gradientColor=#000000;" parent="1" vertex="1">
                    <mxGeometry x="680" y="180" width="30" height="30" as="geometry"/>
                </mxCell>
                <mxCell id="18" value="" style="endArrow=none;html=1;endSize=12;startArrow=none;startSize=14;startFill=0;edgeStyle=orthogonalEdgeStyle;align=center;verticalAlign=bottom;endFill=0;strokeWidth=2;fontFamily=Times New Roman;fontSize=14;fontColor=#FF0080;strokeColor=#3399FF;editable=1;movable=1;resizable=1;rotatable=1;deletable=1;connectable=1;" parent="1" edge="1">
                    <mxGeometry y="3" relative="1" as="geometry">
                        <mxPoint x="580" y="200" as="sourcePoint"/>
                        <mxPoint x="600" y="200" as="targetPoint"/>
                        <Array as="points">
                            <mxPoint x="580" y="200"/>
                            <mxPoint x="580" y="200"/>
                        </Array>
                    </mxGeometry>
                </mxCell>
                <mxCell id="24" value="&lt;b style=&quot;font-size: 16px;&quot;&gt;&lt;font face=&quot;Times New Roman&quot; style=&quot;font-size: 16px;&quot;&gt;FILE&lt;/font&gt;&lt;/b&gt;" style="text;html=1;align=center;verticalAlign=middle;resizable=1;points=[];autosize=1;strokeColor=#FFFFFF;fillColor=none;rounded=1;fontSize=16;fontColor=#FFFFFF;" parent="1" vertex="1">
                    <mxGeometry x="40" y="200" width="80" height="26" as="geometry"/>
                </mxCell>
                <mxCell id="28" value="&lt;font&gt;DESCRIPTION DE L'IMAGE&lt;/font&gt;" style="rounded=1;whiteSpace=wrap;html=1;strokeColor=#FFFFFF;fontFamily=Times New Roman;fontSize=16;verticalAlign=top;fillColor=none;fontColor=#FFFFFF;" parent="1" vertex="1">
                    <mxGeometry x="440" y="520" width="270" height="90" as="geometry"/>
                </mxCell>
                <mxCell id="38" value="Text" style="text;html=1;align=center;verticalAlign=middle;resizable=1;points=[];autosize=1;strokeColor=#FFFFFF;fillColor=none;fontSize=16;fontFamily=Times New Roman;fontColor=#FFBC26;dashed=1;" parent="1" vertex="1">
                    <mxGeometry x="472.5" y="550" width="205" height="40" as="geometry"/>
                </mxCell>
                <mxCell id="39" value="&lt;font style=&quot;font-size: 16px;&quot; face=&quot;Times New Roman&quot;&gt;&lt;b&gt;TP DATASCIENCE&lt;/b&gt;&lt;/font&gt;" style="text;html=1;align=center;verticalAlign=middle;resizable=0;points=[];autosize=1;strokeColor=none;fillColor=none;fontColor=#FFFFFF;" parent="1" vertex="1">
                    <mxGeometry x="265" y="180" width="160" height="30" as="geometry"/>
                </mxCell>
                <mxCell id="8" value="" style="ellipse;whiteSpace=wrap;html=1;aspect=fixed;container=1;strokeColor=#FFBC26;fillColor=none;editable=0;" parent="1" vertex="1">
                    <mxGeometry x="232.5" y="302.5" width="145" height="145" as="geometry"/>
                </mxCell>
                <mxCell id="6" value="" style="ellipse;whiteSpace=wrap;html=1;aspect=fixed;container=1;strokeColor=#FFBC26;strokeWidth=1;fillColor=none;movable=1;resizable=1;rotatable=1;deletable=1;editable=0;connectable=1;" parent="8" vertex="1">
                    <mxGeometry x="2.5" y="2.5" width="140" height="140" as="geometry"/>
                </mxCell>
                <mxCell id="7" value="" style="shape=cross;whiteSpace=wrap;html=1;size=0.14166717529296874;container=1;strokeColor=#FFBC26;strokeWidth=1;fillColor=none;" parent="6" vertex="1">
                    <mxGeometry x="45" y="45.77999999999997" width="50" height="50" as="geometry"/>
                </mxCell>
                <mxCell id="10" value="" style="shape=cross;whiteSpace=wrap;html=1;size=0.07037082248263889;container=1;strokeWidth=1;strokeColor=#3399FF;fillColor=#3399FF;" parent="7" vertex="1">
                    <mxGeometry x="3" y="3" width="44" height="44" as="geometry"/>
                </mxCell>
                <mxCell id="27" value="&lt;font style=&quot;font-size: 14px;&quot;&gt;TRAITEMENT DE L'IMAGE&lt;/font&gt;" style="rounded=1;whiteSpace=wrap;html=1;strokeColor=#FFFFFF;fontFamily=Times New Roman;fontSize=14;verticalAlign=top;fillColor=none;fontColor=#FFFFFF;" parent="1" vertex="1">
                    <mxGeometry x="60" y="520" width="370" height="90" as="geometry"/>
                </mxCell>
                <mxCell id="44" value="PILE DE MODIFICARION" style="rounded=1;whiteSpace=wrap;html=1;fillColor=#00002B;verticalAlign=top;fontSize=14;fontFamily=Times New Roman;fontColor=#FFFFFF;strokeColor=#FFFFFF;" parent="1" vertex="1">
                    <mxGeometry x="560" y="240" width="150" height="270" as="geometry"/>
                </mxCell>
                <mxCell id="46" value="" style="html=1;verticalLabelPosition=bottom;align=center;labelBackgroundColor=#ffffff;verticalAlign=top;strokeWidth=2;strokeColor=#0080F0;shadow=0;dashed=0;shape=mxgraph.ios7.icons.delete;fillColor=#00002B;" parent="1" vertex="1">
                    <mxGeometry x="662.5" y="314" width="7.5" height="10" as="geometry"/>
                </mxCell>
                <mxCell id="48" value="-modif 1&lt;br&gt;-modif 2&lt;br&gt;.&lt;br&gt;.&lt;br&gt;.&lt;br&gt;-modif n" style="text;html=1;align=center;verticalAlign=top;resizable=1;points=[];autosize=1;strokeColor=none;fillColor=none;fontSize=14;fontFamily=Times New Roman;fontColor=#FFFFFF;" parent="1" vertex="1">
                    <mxGeometry x="600" y="302.5" width="70" height="110" as="geometry"/>
                </mxCell>
                <mxCell id="52" value="" style="sketch=0;points=[[0,0,0],[0.25,0,0],[0.5,0,0],[0.75,0,0],[1,0,0],[0,1,0],[0.25,1,0],[0.5,1,0],[0.75,1,0],[1,1,0],[0,0.25,0],[0,0.5,0],[0,0.75,0],[1,0.25,0],[1,0.5,0],[1,0.75,0]];outlineConnect=0;fontColor=#232F3E;gradientColor=#F78E04;gradientDirection=north;fillColor=#D05C17;strokeColor=#ffffff;dashed=0;verticalLabelPosition=bottom;verticalAlign=top;align=center;html=1;fontSize=12;fontStyle=0;aspect=fixed;shape=mxgraph.aws4.resourceIcon;resIcon=mxgraph.aws4.ec2_image_builder;fontFamily=Times New Roman;" parent="1" vertex="1">
                    <mxGeometry x="50" y="172" width="22" height="22" as="geometry"/>
                </mxCell>
                <mxCell id="30" value="Selection du traitement" style="shape=rect;fontColor=#3399FF;verticalAlign=middle;spacingLeft=13;fontSize=14;strokeColor=#3399FF;align=left;resizeWidth=1;rounded=1;fillColor=none;fontFamily=Times New Roman;" parent="1" vertex="1">
                    <mxGeometry x="100" y="550" width="250" height="40" as="geometry"/>
                </mxCell>
                <mxCell id="31" value="" style="shape=rect;fillColor=none;strokeColor=#3399FF;resizeHeight=1;rounded=1;fontColor=#FFBC26;" parent="30" vertex="1">
                    <mxGeometry x="1" width="40" height="40" relative="1" as="geometry">
                        <mxPoint x="-40" as="offset"/>
                    </mxGeometry>
                </mxCell>
                <mxCell id="32" value="" style="dashed=0;html=1;shape=mxgraph.gmdl.triangle;fillColor=#cccccc;strokeColor=none;" parent="31" vertex="1">
                    <mxGeometry x="0.5" y="0.5" width="10" height="5" relative="1" as="geometry">
                        <mxPoint x="-5" y="-2.5" as="offset"/>
                    </mxGeometry>
                </mxCell>
                <mxCell id="60" value="" style="sketch=0;pointerEvents=1;shadow=0;dashed=0;html=1;strokeColor=#FF0000;fillColor=#FFFFFF;labelPosition=center;verticalLabelPosition=bottom;verticalAlign=top;outlineConnect=0;align=center;shape=mxgraph.office.communications.exchange_active_sync;fontFamily=Times New Roman;fontSize=13;" parent="1" vertex="1">
                    <mxGeometry x="363.88" y="560" width="32.25" height="30" as="geometry"/>
                </mxCell>
                <mxCell id="61" value="" style="endArrow=none;html=1;strokeColor=#3399FF;fontFamily=Times New Roman;fontSize=13;fontColor=#3399FF;entryX=0.991;entryY=0.167;entryDx=0;entryDy=0;entryPerimeter=0;strokeWidth=2;" parent="1" target="44" edge="1">
                    <mxGeometry width="50" height="50" relative="1" as="geometry">
                        <mxPoint x="560" y="285" as="sourcePoint"/>
                        <mxPoint x="440" y="350" as="targetPoint"/>
                    </mxGeometry>
                </mxCell>
                <mxCell id="62" value="" style="html=1;verticalLabelPosition=bottom;align=center;labelBackgroundColor=#ffffff;verticalAlign=top;strokeWidth=2;strokeColor=#0080F0;shadow=0;dashed=0;shape=mxgraph.ios7.icons.delete;fillColor=#00002B;" vertex="1" parent="1">
                    <mxGeometry x="662.5" y="330" width="7.5" height="10" as="geometry"/>
                </mxCell>
                <mxCell id="63" value="" style="html=1;verticalLabelPosition=bottom;align=center;labelBackgroundColor=#ffffff;verticalAlign=top;strokeWidth=2;strokeColor=#0080F0;shadow=0;dashed=0;shape=mxgraph.ios7.icons.delete;fillColor=#00002B;" vertex="1" parent="1">
                    <mxGeometry x="662.5" y="398" width="7.5" height="10" as="geometry"/>
                </mxCell>
            </root>
        </mxGraphModel>
    </diagram>
</mxfile>